<mxfile host="app.diagrams.net" agent="Mozilla/5.0 (Macintosh; Intel Mac OS X 10_15_7) AppleWebKit/537.36 (KHTML, like Gecko) Chrome/131.0.0.0 Safari/537.36" version="24.8.3">
  <diagram name="Page-1" id="cq_vAfkRRfuAyZa90Ofd">
    <mxGraphModel dx="848" dy="612" grid="1" gridSize="10" guides="1" tooltips="1" connect="1" arrows="1" fold="1" page="1" pageScale="1" pageWidth="827" pageHeight="1169" math="0" shadow="0">
      <root>
        <mxCell id="0" />
        <mxCell id="1" parent="0" />
        <mxCell id="pNTFUdq_wdxzmJCAfpej-14" value="return payload" style="html=1;verticalAlign=bottom;endArrow=open;dashed=1;endSize=8;curved=0;rounded=0;" edge="1" parent="1">
          <mxGeometry relative="1" as="geometry">
            <mxPoint x="529.5" y="250" as="sourcePoint" />
            <mxPoint x="399" y="250" as="targetPoint" />
          </mxGeometry>
        </mxCell>
        <mxCell id="pNTFUdq_wdxzmJCAfpej-1" value="User" style="shape=umlLifeline;perimeter=lifelinePerimeter;whiteSpace=wrap;html=1;container=1;dropTarget=0;collapsible=0;recursiveResize=0;outlineConnect=0;portConstraint=eastwest;newEdgeStyle={&quot;curved&quot;:0,&quot;rounded&quot;:0};participant=umlActor;labelPosition=center;verticalLabelPosition=top;align=center;verticalAlign=bottom;" vertex="1" parent="1">
          <mxGeometry x="140" y="70" width="20" height="300" as="geometry" />
        </mxCell>
        <mxCell id="pNTFUdq_wdxzmJCAfpej-2" value="GUI Client" style="shape=umlLifeline;perimeter=lifelinePerimeter;whiteSpace=wrap;html=1;container=1;dropTarget=0;collapsible=0;recursiveResize=0;outlineConnect=0;portConstraint=eastwest;newEdgeStyle={&quot;curved&quot;:0,&quot;rounded&quot;:0};participant=umlBoundary;labelPosition=center;verticalLabelPosition=top;align=center;verticalAlign=bottom;" vertex="1" parent="1">
          <mxGeometry x="240" y="70" width="50" height="300" as="geometry" />
        </mxCell>
        <mxCell id="pNTFUdq_wdxzmJCAfpej-9" value="" style="html=1;points=[[0,0,0,0,5],[0,1,0,0,-5],[1,0,0,0,5],[1,1,0,0,-5]];perimeter=orthogonalPerimeter;outlineConnect=0;targetShapes=umlLifeline;portConstraint=eastwest;newEdgeStyle={&quot;curved&quot;:0,&quot;rounded&quot;:0};" vertex="1" parent="pNTFUdq_wdxzmJCAfpej-2">
          <mxGeometry x="20" y="130" width="10" height="90" as="geometry" />
        </mxCell>
        <mxCell id="pNTFUdq_wdxzmJCAfpej-3" value="Core Client" style="shape=umlLifeline;perimeter=lifelinePerimeter;whiteSpace=wrap;html=1;container=1;dropTarget=0;collapsible=0;recursiveResize=0;outlineConnect=0;portConstraint=eastwest;newEdgeStyle={&quot;curved&quot;:0,&quot;rounded&quot;:0};participant=umlControl;labelPosition=center;verticalLabelPosition=top;align=center;verticalAlign=bottom;" vertex="1" parent="1">
          <mxGeometry x="374" y="70" width="40" height="300" as="geometry" />
        </mxCell>
        <mxCell id="pNTFUdq_wdxzmJCAfpej-11" value="" style="html=1;points=[[0,0,0,0,5],[0,1,0,0,-5],[1,0,0,0,5],[1,1,0,0,-5]];perimeter=orthogonalPerimeter;outlineConnect=0;targetShapes=umlLifeline;portConstraint=eastwest;newEdgeStyle={&quot;curved&quot;:0,&quot;rounded&quot;:0};" vertex="1" parent="pNTFUdq_wdxzmJCAfpej-3">
          <mxGeometry x="15" y="140" width="10" height="80" as="geometry" />
        </mxCell>
        <mxCell id="pNTFUdq_wdxzmJCAfpej-4" value="DICT Server" style="shape=umlLifeline;perimeter=lifelinePerimeter;whiteSpace=wrap;html=1;container=1;dropTarget=0;collapsible=0;recursiveResize=0;outlineConnect=0;portConstraint=eastwest;newEdgeStyle={&quot;curved&quot;:0,&quot;rounded&quot;:0};participant=umlEntity;labelPosition=center;verticalLabelPosition=top;align=center;verticalAlign=bottom;" vertex="1" parent="1">
          <mxGeometry x="510" y="70" width="40" height="300" as="geometry" />
        </mxCell>
        <mxCell id="pNTFUdq_wdxzmJCAfpej-13" value="" style="html=1;points=[[0,0,0,0,5],[0,1,0,0,-5],[1,0,0,0,5],[1,1,0,0,-5]];perimeter=orthogonalPerimeter;outlineConnect=0;targetShapes=umlLifeline;portConstraint=eastwest;newEdgeStyle={&quot;curved&quot;:0,&quot;rounded&quot;:0};" vertex="1" parent="pNTFUdq_wdxzmJCAfpej-4">
          <mxGeometry x="15" y="150" width="10" height="40" as="geometry" />
        </mxCell>
        <mxCell id="pNTFUdq_wdxzmJCAfpej-6" value="input the word" style="html=1;verticalAlign=bottom;endArrow=block;curved=0;rounded=0;" edge="1" parent="1">
          <mxGeometry x="-0.0053" width="80" relative="1" as="geometry">
            <mxPoint x="149.5" y="140" as="sourcePoint" />
            <mxPoint x="264.5" y="140" as="targetPoint" />
            <mxPoint as="offset" />
          </mxGeometry>
        </mxCell>
        <mxCell id="pNTFUdq_wdxzmJCAfpej-7" value="select a dictionary" style="html=1;verticalAlign=bottom;endArrow=block;curved=0;rounded=0;" edge="1" parent="1">
          <mxGeometry width="80" relative="1" as="geometry">
            <mxPoint x="149.5" y="170" as="sourcePoint" />
            <mxPoint x="264.5" y="170" as="targetPoint" />
          </mxGeometry>
        </mxCell>
        <mxCell id="pNTFUdq_wdxzmJCAfpej-8" value="press &quot;translate&quot;" style="html=1;verticalAlign=bottom;endArrow=block;curved=0;rounded=0;" edge="1" parent="1" target="pNTFUdq_wdxzmJCAfpej-2">
          <mxGeometry width="80" relative="1" as="geometry">
            <mxPoint x="150" y="200" as="sourcePoint" />
            <mxPoint x="230" y="200" as="targetPoint" />
          </mxGeometry>
        </mxCell>
        <mxCell id="pNTFUdq_wdxzmJCAfpej-10" value="Core object call" style="html=1;verticalAlign=bottom;endArrow=block;curved=0;rounded=0;" edge="1" parent="1" target="pNTFUdq_wdxzmJCAfpej-3">
          <mxGeometry width="80" relative="1" as="geometry">
            <mxPoint x="270" y="210" as="sourcePoint" />
            <mxPoint x="350" y="210" as="targetPoint" />
          </mxGeometry>
        </mxCell>
        <mxCell id="pNTFUdq_wdxzmJCAfpej-12" value="dispatch" style="html=1;verticalAlign=bottom;endArrow=block;curved=0;rounded=0;" edge="1" parent="1" target="pNTFUdq_wdxzmJCAfpej-13">
          <mxGeometry width="80" relative="1" as="geometry">
            <mxPoint x="400" y="230" as="sourcePoint" />
            <mxPoint x="520" y="230" as="targetPoint" />
          </mxGeometry>
        </mxCell>
        <mxCell id="pNTFUdq_wdxzmJCAfpej-15" value="display result" style="html=1;verticalAlign=bottom;endArrow=open;dashed=1;endSize=8;curved=0;rounded=0;" edge="1" parent="1">
          <mxGeometry relative="1" as="geometry">
            <mxPoint x="389" y="260" as="sourcePoint" />
            <mxPoint x="270" y="260" as="targetPoint" />
          </mxGeometry>
        </mxCell>
      </root>
    </mxGraphModel>
  </diagram>
</mxfile>
